<svg width="97" height="74" viewBox="0 0 97 74" fill="none" xmlns="http://www.w3.org/2000/svg">
<path d="M77.5 19.5455C69.4919 19.5455 63 26.0577 63 34.0909V54.4545C63 62.4878 56.5081 69 48.5 69C40.4919 69 34 62.4878 34 54.4545V34.0909C34 23.3232 39.8319 13.9218 48.5 8.89185C52.7655 6.41664 57.7178 5 63 5C79.0163 5 92 18.0244 92 34.0909C92 26.0577 85.5081 19.5455 77.5 19.5455Z" fill="#FF2261" stroke="#161819" stroke-width="10"/>
<path d="M77.5 19.5455C69.4919 19.5455 63 26.0577 63 34.0909V54.4545C63 62.4878 69.4919 69 77.5 69C85.5081 69 92 62.4878 92 54.4545V34.0909C92 26.0577 85.5081 19.5455 77.5 19.5455Z" fill="#FF2261"/>
<path d="M5 34.0909C5 18.0244 17.9837 5 34 5C39.2822 5 44.2345 6.41664 48.5 8.89185C39.8319 13.9218 34 23.3232 34 34.0909V54.4545C34 62.4878 27.5081 69 19.5 69C11.4919 69 5 62.4878 5 54.4545V34.0909Z" fill="#FF2261"/>
<path d="M77.5 19.5455C69.4919 19.5455 63 26.0577 63 34.0909V54.4545C63 62.4878 69.4919 69 77.5 69C85.5081 69 92 62.4878 92 54.4545V34.0909C92 26.0577 85.5081 19.5455 77.5 19.5455Z" stroke="#161819" stroke-width="10"/>
<path d="M5 34.0909C5 18.0244 17.9837 5 34 5C39.2822 5 44.2345 6.41664 48.5 8.89185C39.8319 13.9218 34 23.3232 34 34.0909V54.4545C34 62.4878 27.5081 69 19.5 69C11.4919 69 5 62.4878 5 54.4545V34.0909Z" stroke="#161819" stroke-width="10"/>
</svg>
